<svg xmlns="http://www.w3.org/2000/svg" width="54" height="21" viewBox="0 0 54 21">
    <defs>
        <filter id="1tyw5mtoaa">
            <feColorMatrix in="SourceGraphic" values="0 0 0 0 0.125490 0 0 0 0 0.411765 0 0 0 0 0.462745 0 0 0 1.000000 0"/>
        </filter>
    </defs>
    <g fill="none" fill-rule="evenodd">
        <g>
            <g filter="url(#1tyw5mtoaa)" transform="translate(-305 -623) translate(0 345)">
                <g>
                    <g fill="#8995A1" fill-rule="nonzero">
                        <path d="M10.442.156c1.482.09 2.944.532 4.214 1.303-.105.12-.208.242-.308.365C12.958 1.017 11.345.586 9.735.63c-1.98.04-3.944.78-5.44 2.082-1.524 1.294-2.57 3.135-2.899 5.108-.252 1.452-.122 2.966.37 4.356.575 1.66 1.69 3.12 3.114 4.146 1.521 1.104 3.414 1.673 5.291 1.62 1.683-.043 3.35-.588 4.729-1.556 1.724-1.207 2.992-3.049 3.472-5.1.364-1.589.288-3.276-.24-4.82.145-.059.289-.122.432-.185.639 1.808.675 3.817.122 5.65-.52 1.753-1.593 3.326-3.014 4.472-1.44 1.168-3.245 1.866-5.093 2.003H9.29c-1.94-.143-3.832-.908-5.305-2.18-1.17-.996-2.079-2.295-2.61-3.737l-.009.014C1.06 11.633.857 10.727.8 9.805V8.804c.124-2.38 1.213-4.695 2.989-6.287C5.327 1.106 7.367.27 9.449.156h.993zm1.114 1.053c.383.083.762.182 1.135.304l.228.088c.105.04.21.081.313.123.332.147.655.312.97.49-.336.697-.44 1.513-.204 2.258.333 1.144 1.378 2.021 2.554 2.183.269.04.542.037.812.013.145-.034.292-.05.44-.061l.07.23c.063.207.122.417.173.629l.14.684c.015.19.025.381.045.571.05.432.05.873-.001 1.305-.018.168-.03.338-.04.508-.045.139-.043.288-.087.428-.018.104-.032.209-.06.311-.02.083-.04.167-.062.25-.676 2.572-2.671 4.748-5.175 5.642-.062.021-.123.043-.185.066-.064.018-.128.04-.19.062l-.142.036c-.098.028-.198.055-.296.084-.084.019-.168.038-.25.06-1.07.228-2.185.226-3.265.066-.4-.085-.798-.18-1.187-.308l-.19-.065c-.104-.042-.208-.08-.312-.12-1.944-.797-3.556-2.357-4.418-4.273-.088-.207-.172-.416-.248-.627-.076-.222-.142-.447-.208-.672-.019-.084-.037-.168-.06-.25-.313-1.382-.267-2.838.122-4.2.064-.206.128-.412.208-.612l.099-.262c.83-1.983 2.46-3.614 4.44-4.449.105-.04.209-.081.312-.123.234-.081.469-.16.707-.226.202-.053.407-.095.61-.145 1.056-.196 2.145-.198 3.202.002zm13.73 13.398c-.09.292-.135.605-.285.874-.076.024-.155.035-.232.052l-.02-.137.14-.107c-.064-.225-.154-.442-.226-.665l.185-.004c.045.146.09.29.138.436.073-.172.033-.488.3-.45zm2.516-.306c-.173.006-.346.007-.52.003-.28-.2-.672-.25-.98-.083-.156.086-.312.242-.288.435.013.228.234.373.432.44.336.09.794.026.948-.33-.254-.006-.508-.002-.763-.008l-.008-.203c.431-.074.872-.041 1.306.001-.005.206-.085.413-.267.526-.534.352-1.277.359-1.825.035-.214-.123-.326-.358-.319-.6.149-.335.493-.517.84-.573.498-.097 1.069-.01 1.444.357zm4.315-.222c.214.112.435.31.416.575-.014.275-.26.46-.492.56-.477.197-1.041.184-1.504-.047-.232-.116-.446-.355-.389-.633.08-.318.409-.484.702-.564.417-.098.878-.083 1.267.11zm-3.61-.153c.16.25.322.498.476.75l.075.027.488-.769.2-.005c.142.468.3.932.438 1.4-.15 0-.3 0-.45-.002-.061-.217-.126-.433-.182-.65l-.07-.001c-.111.189-.226.376-.348.559l-.218-.003c-.148-.18-.197-.469-.422-.568-.04.225-.1.447-.17.665h-.446c.136-.464.305-.918.424-1.387l.205-.016zm-4.776.366c.214.056.306.186.273.337.237-.087.54-.012.635.152.146.192.004.41-.246.53-.232-.01-.462-.018-.693-.022.006-.333-.023-.666.03-.997zm7.08-.005c-.217.141-.244.492-.036.653.321.264.854.266 1.154-.034.13-.113.133-.312.075-.461-.093-.166-.28-.233-.439-.314-.26-.02-.54-.014-.754.156zm-6.777.452c-.076.127-.102.263-.019.392l.37-.015c.005-.083.015-.166.008-.25-.054-.095-.227-.109-.359-.127zM9.742 4.02c-.171.043-.345.076-.516.118l-.232.085c-.775.315-1.399.964-1.687 1.749l-.058.191c-.195.685-.076 1.405-.107 2.105-.196.01-.399-.021-.59.038-.164.062-.218.253-.21.414.002 1.581-.003 3.164.002 4.746-.018.217.17.418.39.399h6.756c.22.02.409-.18.391-.397l.002-2.375V8.718c.008-.16-.047-.35-.21-.411-.189-.053-.388-.03-.581-.043-.023-.7.078-1.42-.113-2.103-.018-.064-.038-.127-.059-.189-.292-.803-.94-1.456-1.733-1.771l-.332-.105c-.364-.09-.74-.114-1.113-.075zm30.768 7.016v-.24c.152-.002.305-.002.457-.001-.032.576.001 1.155-.018 1.732-.014.325-.137.687-.448.84-.427.204-.94.158-1.368-.014l.093-.392c.316.097.682.244.99.048.217-.118.23-.395.24-.612-.307.334-.863.363-1.2.06-.462-.409-.38-1.25.143-1.573.342-.222.857-.192 1.111.152zM10.244 9.572c.295.076.572.28.65.588.141.37-.072.77-.38.98.072.549.105 1.102.185 1.65H9.526c.077-.549.117-1.103.185-1.653-.292-.2-.502-.566-.397-.926.067-.33.353-.559.667-.64h.263zm20.415.34c.006.375.002.75.003 1.125.34-.395 1.033-.395 1.352.024.37.501.223 1.386-.405 1.605-.349.148-.743.03-1.014-.215l-.009.23h-.445c.038-.92.008-1.841.018-2.762.166-.008.333.007.5-.008zm-1.141 1.152c.275.315.3.802.11 1.166-.345.599-1.297.67-1.752.162-.42-.477-.239-1.36.386-1.568.416-.15.945-.099 1.256.24zm7.992-.877c-.06.152-.105.31-.149.469-.308-.096-.653-.2-.959-.04l-.083.182c.24.321.693.29.995.526.42.272.372.986-.06 1.223-.485.27-1.09.218-1.585.002l.134-.511c.359.14.82.286 1.156.022l-.009-.23-.276-.17c-.272-.075-.56-.153-.772-.352-.258-.245-.266-.691-.03-.954.196-.23.507-.32.8-.336.286-.007.587.02.838.17zm-3.662.667c.208.104.288.335.35.542 0 .429-.01.857.014 1.285h-.447l-.02-.192c-.304.248-.788.354-1.105.07-.236-.221-.223-.645.029-.85.28-.257.689-.255 1.045-.283l-.03-.076c-.168-.385-.68-.238-.974-.093-.036-.116-.07-.233-.103-.35.387-.158.85-.25 1.241-.053zm-7.688-.677c-.047.169-.098.336-.15.504-.42-.152-.937-.212-1.328.048-.444.293-.41 1.042.036 1.317.27.19.614.159.925.129 0-.178 0-.355-.004-.532h-.45v-.464c.356 0 .713-.003 1.07.003v1.361c-.565.17-1.19.241-1.758.044-.484-.17-.827-.667-.802-1.18-.026-.565.381-1.083.908-1.254.5-.164 1.057-.148 1.553.024zm16.452.567c.349-.018.665.263.707.605.057.442.02.89.027 1.333l-.519-.003c-.003-.36.005-.72-.002-1.08 0-.197-.116-.43-.34-.43-.208-.038-.36.12-.47.27-.003.413-.002.826-.002 1.24l-.518.004c-.026-.63-.016-1.26-.02-1.89.155.001.31.004.467.01l.012.24c.18-.168.401-.316.658-.299zm-15.369-.826v2.763h-.492V9.919h.492zm10.793.876l.527.003c-.01.629.018 1.257-.016 1.885l-.512-.003v-1.885zm-2.812-.877v2.765c-.17 0-.34-.001-.509-.003 0-.92.002-1.838 0-2.756.169-.004.338-.006.509-.006zm-6.88 1.346c-.177.188-.185.473-.132.712.069.276.396.485.666.345.163-.046.238-.204.323-.335.001-.227.048-.486-.113-.675-.164-.241-.549-.258-.744-.047zm5.21.501c-.227.023-.6.082-.56.39.067.325.559.238.666-.017.056-.123.122-.424-.106-.373zm-2.827-.35c-.093.224-.104.507.037.713.187.265.63.257.815-.006.115-.154.117-.352.121-.535-.076-.145-.133-.325-.297-.392-.234-.128-.57-.03-.676.22zm9.03-.23c-.38.207-.39.85.002 1.05.255.167.643-.025.666-.328.015-.178.034-.369-.039-.536-.105-.228-.417-.308-.63-.186zm-1.175-.845c-.083.26-.553.233-.576-.052-.038-.157.08-.305.23-.34.212-.046.435.181.346.392zM12.277 6.966c.005.526.009 1.052-.003 1.578-.992-.002-1.983-.002-2.975 0-.167-.004-.333-.003-.499 0-.261-.002-.524.007-.784-.028.005-.56-.004-1.12.004-1.68.04-1.085.97-2.138 2.095-2.109 1.199-.07 2.188 1.085 2.162 2.24zM37.991 3.45v2.958c.005.383.06.806.337 1.095.27.266.678.3 1.037.281.383-.014.731-.249.936-.566.267-.403.343-.9.346-1.376v-2.39h.58v4.7l-.534-.001v-.828c-.258.501-.758.868-1.32.937-.492.05-1.036.018-1.437-.303-.391-.308-.513-.831-.532-1.305-.005-1.062.003-2.124-.004-3.187.197-.012.394-.015.591-.015zm10.199.505c.476.545.604 1.3.599 2.002l-3.632.002c.036.528.166 1.09.58 1.453.421.422 1.1.472 1.633.256.431-.183.679-.62.8-1.053.2-.005.398-.005.598-.003-.134.536-.392 1.083-.876 1.385-.436.277-.971.303-1.472.27-.578-.037-1.135-.361-1.436-.859-.355-.576-.438-1.278-.388-1.94.064-.579.25-1.175.672-1.594.767-.773 2.21-.764 2.922.08zm-13.387-.64c.586-.003 1.209.223 1.561.71.195.262.29.582.309.905h-.565c-.11-.386-.3-.79-.675-.98-.495-.235-1.122-.178-1.559.155-.336.249-.538.638-.645 1.035-.165.593-.1 1.245.178 1.793.18.329.459.617.81.76.474.18 1.062.117 1.435-.248.292-.252.434-.626.504-.997.185.002.37.002.555.001l-.016.278-.032.037c-.11.545-.447 1.054-.948 1.31-.395.214-.858.228-1.295.186-.662-.073-1.26-.51-1.56-1.1-.312-.59-.36-1.283-.264-1.933.109-.6.407-1.2.927-1.542.372-.258.828-.383 1.28-.37zm-3.26.653c.464.547.568 1.288.596 1.98-.155.017-.309.038-.464.036-1.054-.014-2.11.01-3.162-.022 0 .576.2 1.197.68 1.551.404.321.975.34 1.45.182.468-.168.74-.63.878-1.084.18 0 .362 0 .543-.01-.176-.016-.353-.024-.529-.041.186 0 .372.01.558.02-.095.563-.386 1.122-.882 1.43-.442.267-.978.293-1.48.255-.59-.05-1.157-.39-1.44-.913-.378-.677-.444-1.5-.297-2.251.122-.632.47-1.26 1.06-1.56.8-.407 1.9-.286 2.49.427zm-5.674-.634c.467.05.936.283 1.178.699.157.237.196.522.237.796-.203.004-.406.003-.608-.006-.023-.223-.065-.459-.224-.63-.296-.342-.792-.418-1.22-.37-.35.043-.746.22-.85.589-.103.281.061.584.305.73.702.423 1.615.287 2.286.775.563.406.624 1.316.14 1.806-.392.425-1 .563-1.56.554-.52.016-1.07-.114-1.462-.473-.323-.3-.454-.747-.475-1.175l.57-.003c.035.276.108.566.316.765.425.432 1.105.475 1.659.312.348-.105.703-.398.679-.795.027-.315-.226-.564-.496-.675-.703-.288-1.525-.26-2.162-.71-.589-.419-.538-1.407.034-1.82.468-.346 1.086-.429 1.653-.369zm18.662.04c.001.203 0 .406-.01.608-.5-.039-1.012.163-1.338.547-.227.282-.38.638-.373 1.004.003.871 0 1.742.002 2.612-.203.007-.405.007-.608.007.003-1.567-.004-3.134.003-4.701l.547.002c0 .347-.002.695.005 1.043.174-.368.433-.709.8-.903.294-.168.64-.207.972-.22zm1.596.558c-.58.274-.895.915-.95 1.53 1.008.008 2.016.003 3.023.003-.04-.353-.116-.715-.321-1.012-.203-.316-.53-.529-.887-.631-.291-.017-.598-.027-.865.11zm-16.976.2c-.396.33-.566.841-.647 1.333 1.01.002 2.02.002 3.03-.001-.023-.577-.287-1.184-.808-1.475-.487-.287-1.148-.227-1.575.144zM19.51.697c.14.193.307.37.407.59-.006.079-.06.142-.099.208-.894 1.285-1.775 2.58-2.66 3.873-.69-.821-1.357-1.665-2.025-2.506.158-.181.286-.387.45-.562.09-.033.158.045.224.09.439.36.892.703 1.328 1.068.798-.914 1.586-1.838 2.375-2.76z" transform="translate(240 278.178) translate(65) translate(2 1)"/>
                    </g>
                </g>
            </g>
        </g>
    </g>
</svg>
