<svg xmlns="http://www.w3.org/2000/svg" width="54" height="21" viewBox="0 0 54 21">
    <defs>
        <filter id="2y448k9j0a">
            <feColorMatrix in="SourceGraphic" values="0 0 0 0 0.125490 0 0 0 0 0.411765 0 0 0 0 0.462745 0 0 0 1.000000 0"/>
        </filter>
    </defs>
    <g fill="none" fill-rule="evenodd">
        <g>
            <g filter="url(#2y448k9j0a)" transform="translate(-240 -623) translate(0 345)">
                <g fill="#8995A1" fill-rule="nonzero">
                    <path d="M26.057.306l3.584 8.168c-.7.923-1.581 2.101-2.426 3.236l-.314.423V5.4h-2.892v9.211l-1.153-1.258v-1.504l-.474.271c-.606.347-1.285.523-2.017.523-.747 0-1.32-.217-1.752-.662-.434-.448-.645-1.041-.645-1.814 0-.808.224-1.426.686-1.888.462-.462 1.059-.687 1.824-.687.622 0 1.19.125 1.69.372l.212.113.476.278V5.67l-.21-.075c-.635-.228-1.42-.344-2.33-.344-1.5 0-2.74.472-3.687 1.404-.949.934-1.43 2.162-1.43 3.65 0 1.403.43 2.546 1.28 3.398.85.851 2.022 1.283 3.484 1.283.176 0 .346-.004.511-.013l.245-.016.025.03.483.557.174.2-12.757 4.137-1.841-5.048h2.58v-3.032h.873c1.397 0 2.538-.294 3.388-.875.89-.606 1.34-1.416 1.34-2.406 0-2.007-1.422-3.055-4.228-3.119L10.48 5.4H6.255v7.931L2.043 1.785 26.057.305zm8.11 6.165c-3.225 2.106-7.24 9.643-7.898 10.73-.659 1.085-1.998 1.079-2.37.822-.188-.13-2.706-3.04-2.886-3.247l-.01-.011 1.448-1.35 2.172 2.37s6.089-8.261 6.582-8.755c.494-.493 1.185-.526 2.962-.559zm-3.515 4.31l.755 1.719-2.426.786c.513-.815 1.079-1.676 1.671-2.506zm7.544-.507c.245 0 .44.078.582.234.143.157.214.369.214.637 0 .27-.071.482-.214.638-.143.157-.337.235-.582.235-.246 0-.44-.078-.584-.235-.144-.156-.215-.369-.215-.638 0-.268.072-.48.216-.637.144-.156.338-.234.583-.234zm-1.754 0c.196 0 .362.058.497.175.108.094.177.208.207.342l.015.105h-.337c-.017-.096-.06-.173-.13-.23-.069-.058-.153-.086-.252-.086-.13 0-.234.05-.31.152-.075.1-.113.238-.113.413s.038.313.114.415c.075.101.18.152.31.152.1 0 .184-.027.253-.082.052-.04.089-.092.111-.153l.018-.065h.338c-.015.18-.089.325-.221.437-.134.113-.3.169-.5.169-.24 0-.43-.078-.57-.234-.139-.156-.208-.37-.208-.639 0-.27.07-.482.208-.638.14-.155.33-.233.57-.233zm6.936.042v1.357h.738v.302h-1.085v-1.659h.347zm-3.659 0l.459 1.115h.02l.46-1.115h.408v1.66h-.322v-1.11h-.018l-.422 1.014h-.231l-.423-1.014h-.018v1.11h-.322v-1.66h.409zm2.43 0c.17 0 .31.053.415.158.106.106.16.245.16.416 0 .17-.055.308-.165.413-.088.084-.196.134-.326.15l-.102.007h-.327v.515h-.347v-1.659h.692zm2.618 0v1.66h-.347v-1.66h.347zm5.262 0v.345h-.517v1.314h-.347v-1.314h-.516v-.345h1.38zm-4.006 0l.576 1.66h-.376l-.125-.396h-.583l-.128.395h-.348l.576-1.659h.408zm1.137 0l.763 1.034h.02v-1.034h.333v1.659h-.288l-.765-1.038h-.02v1.038h-.333v-1.659h.29zm-8.964.262c-.135 0-.243.052-.323.154-.08.102-.12.24-.12.413s.04.311.12.414c.08.103.187.154.323.154.135 0 .242-.051.322-.154.08-.103.12-.24.12-.414 0-.173-.04-.31-.12-.413-.08-.102-.187-.154-.322-.154zm7.623.083h-.021l-.208.651h.434l-.205-.65zm-3.762-.06h-.253v.578h.252c.1 0 .178-.025.232-.075.055-.05.083-.12.083-.213s-.027-.165-.082-.215c-.054-.05-.132-.075-.232-.075zm1.012-6.244c.557 0 1.015.142 1.374.424.314.248.497.56.549.937l.014.165h-.996c-.026-.201-.124-.362-.295-.484-.17-.121-.384-.182-.638-.182-.267 0-.48.057-.64.172-.161.114-.241.267-.241.459 0 .157.065.283.195.38.103.076.26.142.472.198l.168.04.61.13c.508.107.878.275 1.109.505.232.229.348.54.348.933 0 .51-.184.912-.55 1.205-.366.294-.867.44-1.503.44-.604 0-1.088-.137-1.453-.414-.324-.245-.512-.568-.562-.968l-.013-.154h1.024c.024.205.131.37.323.49.192.123.438.183.737.183.276 0 .502-.06.677-.18.176-.12.263-.277.263-.469 0-.161-.068-.292-.203-.393-.113-.084-.287-.155-.522-.215l-.149-.034-.659-.14c-.917-.192-1.375-.674-1.375-1.446 0-.477.176-.86.53-1.149.353-.289.822-.433 1.406-.433zm4.817 0c.557 0 1.014.141 1.374.424.314.248.497.56.549.937l.014.165h-.997c-.026-.201-.124-.362-.295-.484-.17-.122-.383-.183-.638-.183-.267 0-.48.058-.64.172-.16.115-.24.268-.24.46 0 .157.064.283.194.379.104.077.261.143.472.199l.168.04.61.13c.508.107.878.275 1.11.504.231.23.347.541.347.934 0 .51-.183.912-.55 1.205-.365.294-.866.44-1.503.44-.603 0-1.087-.138-1.452-.414-.325-.245-.512-.568-.563-.968l-.013-.154h1.025c.023.205.13.37.323.491.191.122.437.182.736.182.277 0 .502-.06.678-.18.175-.121.263-.277.263-.469 0-.161-.068-.292-.204-.393-.113-.084-.287-.155-.522-.215l-.148-.034-.66-.14c-.916-.192-1.375-.674-1.375-1.446 0-.477.177-.86.53-1.149.353-.289.822-.433 1.407-.433zM10.048 7.554c1.61 0 1.674.696 1.676 1.004v.074c-.002.303-.061.974-1.483 1.03l-.193.003h-.665v-2.11h.665zm27.858-3.07c.753 0 1.337.217 1.752.654.416.436.623 1.05.623 1.843 0 .821-.207 1.455-.62 1.9-.37.401-.882.622-1.533.662l-.222.006h-1.993V4.483h1.993zm-.169.904h-.765v3.256h.765c.47 0 .832-.14 1.084-.422.253-.282.38-.69.38-1.223 0-.51-.13-.906-.387-1.188-.257-.282-.616-.423-1.077-.423zM25.491 2.127c-.819 0-1.482.663-1.482 1.481 0 .819.663 1.482 1.482 1.482.818 0 1.482-.663 1.482-1.482 0-.818-.664-1.481-1.482-1.481z" transform="translate(240 278.178)"/>
                </g>
            </g>
        </g>
    </g>
</svg>
