<svg xmlns="http://www.w3.org/2000/svg" width="36" height="36" viewBox="0 0 36 36"><g fill="none"><path fill="#018CDF" d="M6.778 5.87l27.957-4.086c.162-.033.292-.033.454-.033C34.51.714 33.373.032 32.076.032H3.827C1.784.032.097 1.72.097 3.762v28.184c0 2.043 1.687 3.73 3.73 3.73h3.276l-3.47-25.59C3.34 8.076 4.767 6.162 6.777 5.87z"/><path fill="#FFF" d="M35.773 31.978V3.795c0-.746-.227-1.46-.616-2.044-.162 0-.292 0-.454.033L6.746 5.87c-2.01.292-3.438 2.206-3.146 4.249l3.47 25.59h24.973a3.73 3.73 0 003.73-3.73z"/><path fill="#D9D8D8" d="M35.157 1.719l-.26.032.098.13c.356.584.519 1.2.519 1.881V31.85c0 1.978-1.622 3.6-3.6 3.6H7.038l.032.227h24.844c2.108 0 3.827-1.72 3.827-3.86V3.73c.032-.681-.163-1.362-.584-2.011z"/><g fill="#018CDF"><path d="M22.216 12.422a.83.83 0 00-.616-.26c-.357 0-.616.162-.778.52-.357-.423-.844-.617-1.46-.617-.746 0-1.362.292-1.88.843-.52.584-.747 1.265-.747 2.076 0 .81.26 1.524.746 2.075.519.584 1.135.844 1.881.844.616 0 1.103-.195 1.46-.617.162.357.421.52.778.52a.83.83 0 00.616-.26c.162-.162.227-.357.227-.616v-3.99c.033-.13-.065-.356-.227-.518zm-1.751 3.6c-.195.26-.487.389-.843.389-.357 0-.649-.13-.844-.39a1.62 1.62 0 01-.324-1.005c0-.389.097-.713.324-.973.195-.26.487-.389.844-.389.356 0 .648.13.843.39.194.259.324.583.324.972-.032.39-.13.746-.324 1.006zm3.925 1.588a.83.83 0 01-.617.26.83.83 0 01-.616-.26c-.162-.161-.227-.356-.227-.615V9.859a.91.91 0 01.227-.616.83.83 0 01.616-.26.83.83 0 01.616.26c.162.162.227.357.227.616v7.136c0 .26-.065.454-.227.616zM30 12.94c-.551-.583-1.232-.843-2.076-.843-.843 0-1.524.292-2.075.844-.52.55-.811 1.264-.811 2.108 0 .843.26 1.524.81 2.108.52.551 1.233.843 2.076.843.844 0 1.525-.292 2.076-.843.519-.552.778-1.265.778-2.076.033-.876-.227-1.59-.778-2.14zm-1.2 3.082c-.195.26-.486.389-.843.389s-.649-.13-.843-.39a1.62 1.62 0 01-.325-1.005c0-.389.097-.713.325-.973.194-.26.486-.389.843-.389s.648.13.843.39c.195.259.324.583.324.972-.032.39-.13.746-.324 1.006z"/><path d="M15.795 12.292c.583-.778.908-1.297.908-1.557 0-.616-.39-.94-1.168-.94h-4.119c-.324 0-.584.064-.746.227a.812.812 0 00-.26.583c0 .26.098.454.26.584.162.162.422.227.746.227h2.822l-3.633 4.67c-.227.292-.356.584-.356.811 0 .681.454 1.006 1.362 1.006h4.248c.682 0 1.006-.292 1.006-.844 0-.583-.324-.843-1.006-.843h-3.113l3.049-3.924z"/></g><g fill="#0DBE02"><path d="M13.784 22.378h-1.07v2.206h1.07c.324 0 .584-.098.778-.325.195-.194.292-.486.292-.778 0-.324-.097-.584-.292-.778-.194-.227-.454-.325-.778-.325zm5.286 2.044a.987.987 0 00-.778.356 1.45 1.45 0 00-.292.908c0 .357.097.682.292.909.194.26.454.356.778.356a.99.99 0 00.779-.356 1.45 1.45 0 00.292-.909c0-.356-.098-.68-.292-.908a.987.987 0 00-.779-.356z"/><path d="M26.53 19.232H11.19a.941.941 0 00-.941.941v8.984c0 .519.421.94.94.94h12.097c-.13-.13-.194-.26-.194-.421 0-.13.032-.26.097-.422l.584-1.265-1.59-3.957a1.166 1.166 0 01-.064-.356c0-.162.065-.325.227-.422a.64.64 0 01.454-.195c.357 0 .584.163.714.52l.972 2.691 1.038-2.692c.13-.324.357-.519.714-.519a.64.64 0 01.454.195c.13.13.227.26.227.422 0 .13-.033.26-.065.356l-2.335 5.676c-.065.162-.13.292-.227.39h2.238c.519 0 .94-.422.94-.941v-8.984a.921.921 0 00-.94-.94zm-10.833 6.033c-.486.454-1.102.649-1.816.649h-1.167V27.6c0 .26-.065.454-.228.584a.782.782 0 01-.55.227c-.228 0-.422-.065-.552-.227a.865.865 0 01-.227-.584v-5.838c0-.551.26-.81.81-.81h1.85c.778 0 1.394.226 1.913.68.486.454.746 1.07.746 1.784 0 .811-.26 1.395-.779 1.849zm6 2.303a.707.707 0 01-.227.55.711.711 0 01-.551.228c-.324 0-.584-.162-.746-.487-.324.39-.778.584-1.362.584-.681 0-1.265-.26-1.72-.778-.453-.52-.713-1.168-.713-1.946s.227-1.395.714-1.946a2.202 2.202 0 011.719-.778c.584 0 1.005.194 1.362.583.162-.324.39-.486.746-.486.227 0 .422.065.551.227a.711.711 0 01.227.551v3.698z"/></g></g></svg>